<?xml version="1.0" encoding="UTF-8"?>
<svg id="Layer_1" data-name="Layer 1" xmlns="http://www.w3.org/2000/svg" viewBox="0 0 1020 1020">
  <defs>
    <style>
      .cls-1 {
        fill: #231f20;
      }
    </style>
  </defs>
  <path class="cls-1" d="M406.33,237.78c-6.12,6.18-36.32,31.99-33.25,40.2s41.66-7.26,43.04,4.77c.36,3.14-43.67,31.76-27.83,37.28,12.52,4.37,34.84-21.59,37.57-21.75,11.52-.69,22.27,25.62,21.55,36.77-.33,5.04-10,46.88-11.84,55.15-3.26,14.68-16.35,23.21-16.47,35.03-.12,11.48,9.65,13.06,14.08,23.68,4.06,9.72,10.87,53.5-5.73,49.66-3.48-.8-9.31-43.06-12.42-49.67l-3.78,1.92c4.23-15.58-4.94-20.83-7.23-30.03-3.18-12.78,4.61-.19,7.19-2.45,5.18-4.53-6.48-6.62-7.74-8.43-4.05-5.82-10.73-41.31-9.4-43.1.36-.48,11.94,5.18,4.36-3.96-16.64-20.07-6.58,25.88-11.63,31.32,20.68,38.38-8.71,10.7-29,12.75l3.79,3.77-62.95,13.37c12.82-10.35.15-6.88-.02-7.62-.31-1.34-1.83-26.16-1.4-27.46,2.58-7.81,18.76-17.22,12.87-27.91l3.78,1.94c-.77-8.18,3.38-16.18,3.88-24.02.51-7.96-5.31-11.44-5.43-13.25-.08-1.25,7.23-5.16,5.37-10.48-.09-.27-4.49,2.62-5.65-.96-.21-.66,7.72-5.11-2.08-11.33-14.74-9.34-23.28,12.61-11.32,17.99-22.66-4.53-10.74,5.58-11.5,7.62-.35.94-9.51,14.62-10.17,17.2-1.79,7-2.44,37.31-4.04,38.39-8.18,5.54-16.05-11.85-27.12-11.18-4.98.3-15.12,13.4-19.67,4.29-3.49-6.99,9.42-4.33,13.44-7.67,2.56-2.12-.16-5.52,1.63-7.67,2.28-2.72,15.15-7.6,6.33-12.31-2.97-1.59-27.31-.81-19.49-7.65.86-.75,5.32,2.77,7.59,1.06,2.84-2.13,18.16-20.2,19.49-20.68,5.86-2.1,14.24,1.1,14.87.5.92-.87-2.48-5.35-1.72-7.33,1.39-3.64,9.72,2.15-.17-9.83,10.35,3.6,6.97-8.33,13.42-10.62,4.15-1.48,13.06,7.17,18.18-.81,2.88-4.49-12.16-10.04-8.7-13.39,2.31-2.24,13.05,7.6,16.19,7.66,9.45.17-6.71-10.77-2.82-13.39,6.75-4.55,18.31,6.53,19.04,5.72,7.16-7.83-7.19-21.4-5.68-22.91,2.08-2.09,15.55,25.14,26.67,4.3,1.17-2.2-.9-11.01,0-11.95.6-.61,12.26.82,17.08-1.05,8.7-3.38,11.3-14.61,23.61-18.54,1.05-.33,20.77-2.38,21.84-2.13,14.23,3.35,1.11,7.38-.65,9.15ZM352.57,349.14c-.76-.07.2-3.74-1.43-3.31s-7.57,8.2-11.49,8.82c-4.48.71-3.95-9.62-13.23-1.09-3.89,3.57-9.76,22.81-7.81,26.64,5.07,9.95,25.33-1.27,33.48,3.8l-1.92-3.78c6-6.52,22.02,16.33,24.79,13.34,1.76-1.9-13.2-42.45-15.77-44.43-1.09-.84-4.48.22-6.62.02Z"/>
  <path class="cls-1" d="M729.6,296.37c1.34.55,15.54,19,20.6,20.5,8.42,2.49,4.06-10.3,20.52,7.86.88.97-.57,6.77.89,8.47,1.94,2.25,6.2.2,8.79,3.12,5.55,6.26,11.22,18.16,18.28,25.58,2.19,2.3,8.66.43,9.42,1.15,2.05,1.95,1.44,18.22,1.93,19.04.3.5,6.59-.96,7.39.37,1.97,3.25,11.63,16.72,11.66,17.78.06,2.05-6.87,1.35-5.66,5.7.76,2.74,8.98,5.72,9.43,7.64.09.39-4.87,3.72-3.46,7.16,2.78,6.76,14.21,21.05,15.51,24.86,1.26,3.73-1.29,7.57-.14,11.36,1.85,6.08,8.88,20.26,9.31,25.25.13,1.51-5.71,2.06-5.64,4.04.39,10.6,3.72,27.77,3.7,38.01-.03,14.03-11.12,81.69,10.4,83.13,2.86.19,12.11-17.75,12.93-18.52,1.47-1.37,19.52-8.54,18.52-12.95-.26-1.17-4.62-3.14-5.23-6.23-15.78-80.28-11.8-159.71-46.28-237.21,4.4-7.31,21.27,10.64,25.88,15.17,27.01,26.63,39.3,66.25,37.2,104.08-.54,9.78-8.39,9.67-7.69,13.35.26,1.38,4.8,3.37,5.2,6,1.04,6.87-1.56,6.31,2.56,16.27.84,2.02,10.77,10.58,11.05,14.37s-6.69,3.48-6.87,11.49c-.09,3.95,9.33,32.64,7.1,36.86-.34.64-9.45-.46-11.42,8.75-2.12,9.89,6.09,18.48,5.74,22.93-.35,4.46-5.19,3.61-5.91,5.96-.78,2.52,2.9,9.21,2.05,10.11-1.19,1.26-8.67-2.71-9.52-1.89-1.99,1.95,13.31,17.43,3.66,34.21-.59,1.03-6.88-.43-7.5.17-.35.34,3.59,7.84,1.9,9.51-4.33,4.29-19.8-14.82-13.36,11.46l-5.69-3.79c-12.27,30.78-15.62-29.11-17.55-34.81-4.85-14.32-26.28-12.32-20.66,4.24-7.48-7.73-19.84,6.45-22.86.93-.58-1.06,10.91-10.91,11.03-21.56.08-6.75-7.53-29.73-7.46-37.54.4-43.89,6.07-67.82-1.73-116.03-4.12-25.52-5.62-29.26-16.39-52.96-1.7-3.74,2.13-9.19,1.15-11.48-.1-.23-4.41.5-5.05-.53-5.73-9.23-8.1-16.81-21.53-11.76-9.93,3.73-7.07,11.58-7.76,12.29-6.77,6.97-15.52-26.78-17.14-29.62-2.43-4.27-47.99-63.22-21.31-52.29Z"/>
  <path class="cls-1" d="M673.84,262.55c3.61,3.35,11.3,18.13,15.45,19.97,5.9,2.61,20.73-4.28,21.51-3.52,3.78,3.69-14.69,12.09-11.42,15.25,4.79,4.63,12.42-14.73,16.29-7.66,5.85,10.68-8.15,8.94-8.68,9.58-1.67,2.01,8.7,51.11,2.83,51.59-1.83.15-14.04-7.75-16.16-5.76-1.79,1.68,6.19,9.09-1.05,11.5-5.61,1.87-23.02-28.55-21.84,1.86l3.78-1.94c.95,5.62-7.32,5.39-10.34,11.61-12.74,26.27,8.97,10.71,10.33,11.32,5.92,2.67-6.5,16.17-2.81,17.21,1.86.52,35.52-9.48,37.06-10.64,3.52-2.66,9.94-22.5,9.64-27.56,6.23,12.07,7.95,23.73,11.35,35.01.67,2.21,5.73.97,5.86,1.28.32.76-5.41,6.13-6.37,9.83-2.3,8.9,7.57,16.3-13.11,14.57-19.03-1.59-31.41-19.39-56.88-11.64-3.77,1.15-24.85,17.6-26.69,15.83-1.62-1.56,22.34-41.11,8.58-41.94-3.96-.24-7,26.88-13.31,28.31,6.8,21.12-5.55,31.92-11.82,49.6-1.45,4.08-13.77,72.72-21.43,25.92-5.38-32.89,15.36-50.7,14.88-64.79-.13-3.89-9.35-19.15-10.6-26.23-1.61-9.18,3.05-17.45,2.84-19.2-2.4-19.92-33.57-32.14-7.11-59.41,2.93-3.02,8.72-1.09,9.11-1.34,2.41-1.57-.48-9.34,5.03-9.32,3,0,19.54,15.94,24.8,19.13,1.66,1.01-.2-5.17,2.82-3.79,1,.46,10.48,18.55,17.14,7.53,5.94-9.83-36.58-28.06-36.17-39.08.46-12.36,48.61,4.54,38.81-15.76-2.96-6.14-47.68-27.54-38.61-40.32,8.63-12.15,49.5,26.69,56.3,32.99Z"/>
  <path class="cls-1" d="M829.11,47.98c-12.84,21.33,2.14,19,4.95,22.82,1.67,2.27-2.2,8.34-1.14,9.61.29.34,6.72-.67,8.77,1.74,2.43,2.84,14.47,16.48,15.1,17.45,1.67,2.59-2.54,11.34,4.63,18.2,22.55,21.54,10.26-13.26,11.59-14.44.67-.59,16.63-.34,17.84.26,5.29,2.64,4.27,30.92.16,35.88-8.8,10.63-14.27-.03-15.13.13-3.4.62-16.49,20.89-9.59,20.95,1.42.01,20.88-18.41,23.88-15.22.73.78-5.42,19.77-6.15,20.55-.9.95-23.24,13.18-22.44,6.2,23.02-6.05-23.09-15.1-24.81-11.46-2.94,6.24,15.7,8.14,19.08,7.62.63,7.2-17.15,2.96-19.09,5.74-.62.89,17.05,11.42,18.14,11.42,1.68,0,1.53-4.78,2.8-4.89,17.88-1.53.44,4.24.1,4.98-2.68,5.88,10.68,11.76-17.23,11.4l9.52,9.52-97.3-21.01,34.33-11.48-36.22-12.39c22.79-15.39,39.35-11.67,63.71-14.55,8.4-1,16.34-6.9,28.57-5.34.69.09,8.56,9.1,12.64,5.58,2.98-2.56-24.46-25.5-30.53-21.01-1.7-7.1,6.9-1.9,7.63-4.75,6.34-24.66-77.09,15.43-80.12,12.39-2.35-2.36,7.82-11.46,5.7-13.34-1.69-1.5-8,3.11-7.6-2.84.16-2.4,27.17-35.33,34.34-31.55,1.67-7.17-9.91-1.1-9.54-8.55.06-1.16,13.25-17.59,14.12-18.34,11.6-10.08,25.61-5.51,39.29-11.27Z"/>
  <path class="cls-1" d="M281.59,198.93c-1.97,3.42,5.26,13.32,3.68,15.14-.98,1.13-8.46-13.92-24.33,6.16-1.92,2.42,2.1,8.43-4.27,13.89-2.1,1.8-39.12,15.67-42.66,14.15-.92-.4-9.31-15.31-11.23-16.54-4.88-3.13-23.13-1.53-24.33-13.83,15.73,2.34,35.12,8.33,49.6-1.9l-36.25,1.86c.77-8.43,30.65-8.81,30.52-10.47-.22-2.7-7.4-2.56-7.62-2.9-.85-1.35,4.42-4.08,3.81-5.68-.88-2.31-55.18,18.24-41.77-1.74,3.92-5.85,33.62,6.41-2.09-21.19,25.61,13.35,55.7,4.57,83.36,4.4,4.56-.03,18.74,5.88,24.56,4.5,1.3-.31,16.54-12.73,21.92-15.46,5.81-2.94,12.24-.6,21.51-7.12,16.54-11.64,8.02-28.85,37.2-23.2,3.63.7,47.01,20.38,47.85,22.89,1.37,4.1-12.46,19.2-14.91,20.86-5.86,3.94-31.74,5.63-38.39,3.79-13.07-3.62-2.48-16.37-29.59-12.61-7.42,1.03-43.94,20.44-46.57,25.01Z"/>
  <path class="cls-1" d="M626.33,730.12c6.21,6.1,11.47,28.09,5.3,33.8-1.72,5.18-.27,16.94-1.95,20.86-3.52,8.18-32.96,20.3-4.59,23.98,4.57.59,31.81-9.85,36.12-12.36.85-.5-2.54-5.26-1.91-5.69,1.28-.88,5.82,2.96,9.42,1.03,10.09-5.42,4.74-16.37,19.18-12.52-9.31-5.56,25.38-10.54,13.38-19.05,9.65,1.49,24.68-13.04,21.1,5.46l135.32,60.43-13.31-1.96c1.83,3.29,27.07,14.45,22.88,18.14-5.3,4.66-44.31-26.89-52.15-30.85-9.11-4.6-31.63-7.37-39.43-14.01-7.39-6.29,13.07,1.32,13.36.93-8.41-5.77-59.02-29.17-65.92-28.59s.78,25.23,6.76,24.77c-8.61-5.62-15.78,2.94-15.22,10.58.78,10.7,121.77,79.79,131.64,102.07l-133.64-94.44c-23.49,2.12,15.49,19.34,13.41,29.55-1.9-9.27-43.68-28.59-38.15-34.36.61-.64,7.04.59,7.65-.03.19-.19-2.12-3.58-1.94-3.78.28-.31,4.71.88,5.9-1.23,13.75-24.43-35.66,13.88-44.05,8.87l1.93,3.78c-13.65-6.64-8.04.15-12.6,1.34-25.31,6.62-41.1,4.37-64.35,6.99-9.92,1.12-23.06,11.04-6.24,10.74,20.88-.37,48.24-.65,68.69-3.97,8.94-1.45,38.73-15.07,43.72-14.65,5.24.44,24.58,20.93,31.82,23.44-18.71-3.39,3.31,9.05-.01,12.4-.97.98-17.85-17.45-20.01-19.04-7,3.2,3.21,9.66.93,11.41-.86.66-7.31-5.73-8.6-5.74-1.36-.01-.31,3.06-1.83,3.58-.59.2-3.38-2.19-4.53-1.54s-3.66,9.22-4.13,9.41c-3.1,1.26-6.01-4.65-8.52-3.83-2.26.74,1.37,3.44.97,3.83-.58.55-5.45-.51-5.77.02-3.42,5.72,11.7,5.62,9.53,11.44-17.94-14.83-17.8-2.78-32.31-2.72-3.35.01-3.98-2.99-5.81-2.97-.2,0,.51,3.82-.94,3.82-.52,0-4.97-3.58-9.61-3.94-2.02-.16-34.06,4.72-23.82-5.6,2.39-2.4,53.02-3.81,64.87-5.75-4.84-5.92,16.07-7.96,17.18-9.58,3.81-5.57-22.47.37-24.9.88-28.36,5.99-72.92,13.29-97.09-3.66-1.67-1.17-7.75,1.02-9.43-4.18-3.4-10.49,8.81-11.4,9.29-12.13.8-1.21-3.92-4.11-3.77-4.74.77-3.36,24.92,2.76,5.7-4.75,18.21-2.68,6.9-8.47,7.62-9.55.39-.59,5.17,1.65,7.14.65,2.8-1.43,4.22-6.35,5.26-6.36.95,0,6.02,8,8.59,5.66.67-.6-7.98-6.65-3.79-11.43l5.68,3.82,17.22-32.46,3.78,1.92c5.07-9.88-7.15-44.01,9.03-28.12Z"/>
  <path class="cls-1" d="M252.08,64.08c7.33,5.89,11.14,31.05,15.34,39,2.77,5.25,33.36,38.77,24.47,42.24-2.02.79-6.45-1.84-8.66-.92-2.51,1.05-3.01,6.5-4.78,6.82-3.74.67-7.09-4.5-9.34-4.06-7.77,1.51-8.86,4.01-22.55,3.87-1.55-.02-.66,4.96-4.15,3.84-5.98-1.92-20.29-25.28-31.51-20.97,14.87,18.85-14.42-2.19-22.89-3.86l15.23-2.8c-5.33-1.03-28.07-16.17-29.75-16.42-3.8-.55-8.61,5.75-10.3,3.95-.96-1.02,5.72-8.07,5.69-8.58-.11-1.7-10.29-1.83-3.58-11.25s25.88-4.63,29.46-8.7c5.37-6.12-9.35-8.39-6.75-14.38.84-1.94,19.4-9.34,21.12-11.4,3.18-3.8-6.47-7.77.86-12.5,11.31,10.42,31.27,7.42,42.1,16.12Z"/>
  <path class="cls-1" d="M149.52,486.84c-.37.62-7.85.51-9.09,5.42-.92,3.65,3.81,6.69,3.42,9.07-1.39,8.41-6.24,17.76-7.13,23.51-.6,3.88,3.24,6.41,3.08,7.19-.47,2.19-4.68,3.74-5.08,5.93-.68,3.71,8.43,13.71-13.12,17.32-20.17,3.38-8.02-17.43-10.05-27.03-1.75-8.3-11.67-17.66-10.76-26.54.88-8.63,22.27-41.86,23.2-50.63.81-7.65-4.77-18.07-4.44-25.83.13-2.93,12.82-49.91,14.13-52.64,2.05-4.3,37.02-43.81,39.99-43.95,12.91-.61-8.01,36.59-9.57,40.96-.6,1.69,2.05,6.96.65,11.07-2.38,6.99-15.03,22.65-15.99,31.8-.82,7.86,5.03,14.33,4.89,18.48-.35,10.18-6.78,30.62-7.55,37.89-.41,3.9,6.36,13.05,3.42,17.97Z"/>
  <path class="cls-1" d="M331.43,690.95c1.3-.27,10.72-1.84,11.11-1.44,1.78,1.85-5.13,27.39-5.14,29.18,0,3.61,1.06,30.94,1.53,32.49.97,3.19,6.72,3.85,8.3,7.14,2.09,4.35,1.04,10.61,1.35,11.07.47.7,14.4,7.34,14.95,7.98,2.3,2.66-6.7,2.76,12.1,15.11,1.85,1.22,1,5.45,1.39,5.64,2.85,1.36,11.02-1.96,14.08-.69,13.52,5.62,17.63,20.02,32.64,12.45,14.07-7.09-9.95-19.65-11.98-38.05-.78-7.07,5.94-42.04,12.64-29.6.61,1.14,5.65,18.93,7.82,24.61.69,1.82-4.56.07-3.8,1.88,1.33,3.17,7.47,2.56,7.63,2.93.58,1.38-2.41,4.83-1.1,7.59,1.51,3.2,6.68,3.48,6.81,3.85.61,1.68-5.82,5.7-5.71,6.68.54,4.43,3.61,2.46,3.9,4.02.62,3.32-2.31,7.85-2,8.34.42.67,12.6-2.27,15.78-1.43.88.23,16.21,6.39,16.64,7.19.78,1.45-2.7,6.49-1.9,7.6.42.58,13.95,1.25,7.8,8.75-11,13.42-64.38-3.6-78.99-8.71-2.53-.89-.92-5.53-1.38-5.71-9.88-3.79-29.12-4.71-38.04-9.65-.72-.4.79-6.59-.31-7.29-7.79-4.93-16.28-1.12-19.37-2.09-3.27-1.02-1.23-6.97-15.63-7.87-9.26-.58-96.03,21.16-100.22,24.97-9.26,8.41,22.73-3.41,24.06-3.62,11.04-1.73,22.08-1.34,33.16-2.11-15.27,8.21-36.81,16.83-53.4,17.19l15.23-5.79c-13.24-5.31-29.92,3.21-40.07,9.56l1.94-3.78-11.46,1.87c12.53-12.19,32.79-11.28,41.98-28.59-2.92-1.29-19.19,10.79-19.07,6.67.32-10.99,67.37-36.14,80.12-29.63-17.34,3.74-32.95,14.23-46.71,24.88,12.98-7.16,77.52-11.5,84.02-17.23,16.67-14.72-26.88-13.56-31.57-9.56,4.3-11.86,27.53-4.55,28.61-5.69.65-.69.93-18.35-.09-19-3.05-1.94-14.64,3.63-15.19.85-.69-3.48,21.43-.45,21-9.57-.08-1.7-5.65-1.92-5.66-3.77-.03-5.53,12.88-6.47-1.94-11.49l5.74-.95-1.6-27.17Z"/>
  <path class="cls-1" d="M732.37,194.41l29.46,15.51c20.29-3.3,43.35,31.09,64.04,30.58,2.58-.06,5.3-7.06,8.94-5.4,1.15.52,15.37,18.78,15.36,20.04-.02,3.6-5.25,5.75-5.29,7.84-.19,10.75,9.45,24.48-8.12,21.77l5.71,7.6c-20.71,6.44-20.63-19.21-27.08-26.42-3.98-4.45-31.5-13.56-35.3-16.15-7.79-5.33-14.66-22.41-15.74-23.39-1-.9-10.44-1.48-15.93-6.45-.85-.77-10.25-16.59-13.14-18.85-1.66-1.29-6.6.38-9.2-1.3-13.14-8.46-31.39-22.86-49.71-17.35-5.71,1.72-10.28,10.66-17.84,10.64s-41.53-18.51-44.63-26.17c-12.16-30.08,23.28-3.33,31.51-.99,34.4,9.79,66.54-12.02,86.95,28.49Z"/>
  <path class="cls-1" d="M787.84,455.87c25.33,35.21,20.18,67.42,7.48,105.7-4.42,3.75-22.7,33.44-24.54,34.48-11.09,6.25,4.28-20.73-14.17-19.19,2.19,3.8-9.37,12.7-13.35,18.66-1.61,2.41-.37,6.17-2.75,9.95-2.21,3.51-11.87-.36-2.98,5.71-8.29,1.57-9.03-7.78-14.29-11.44-2.89-2.01-25.64-12.81-25.76-14.3-.49-6.13,14.2-2.06,15.24-2.89,2.17-1.71-3.88-6.3-3.77-6.67,1.33-4.4,32.69-6.46,34.36-7.49,3.89-2.4,2.3-12.2,2.75-12.68,2.27-2.37,12.67-1.86,17.55-8.14,10.94-14.07,5.41-53.77,15.82-70.99-1.82-4.14-5.87-36.63,3.96-30.65,4.12,2.51,2.76,7.57,4.45,9.92Z"/>
  <path class="cls-1" d="M258.02,447.72c3.34.38,8.72,7.3,4.47,11.38-3.12,3-8.4.2-9.63,1.28s2.8,9.2,1.95,12.28c-2.14,7.72-16.31,19.37-3.61,29.4.56.44,6.67-4.17,10.31,2.31,2.84,5.06-3.68,20.22,9.72,32.13,8.4,7.47,18.77,5.22,20.88,7.74,5.18,6.18-4.89,10.01-5.01,11.08-1.23,11.1,10.64,22.99,21.03,26.36,6.24,2.02,29.24,2.08,30.58,2.83.65.36-2.16,4.5-1.95,4.72,1.98,2.03,5.59.55,5.76,1.01,1.7,4.57-18.99,8.46-21.71,9.76-3.83,1.83-8.74,10.15-11.64,10.54-1.52.2-21.34-10.5-25.34-12.37-2.75-1.28-6.87,2.18-9.96.71-7.2-3.4-40.08-47.45-42.69-56.32s2.16-49.09,4.44-58c3.47-13.58,18.22-12.29,15.31-18.44-.31-.65-5.23,1.14-5.7-.93-.22-.96,6.99-17.42,7.63-18.17s4.26.62,5.15.72Z"/>
  <path class="cls-1" d="M424.58,893.79c.4.2-.38,5.54.02,5.73.84.4,11.95-4.41,18.2-4,6.99.46,10.8,5.14,15.5,5.44,3.73.24,18.8-7.66,19.71-7.15s-4.25,14.49,14.4,10.96c9.93-1.88,6.47-9.5,16.12-9.06-.64,4.21-7.12,3.6-5.46,10.59,7.65,32.21,10.17-21.08,16.91-10.59,1.65,2.57-3.91,7.9-3.82,8.63.13,1.1,3.78.75,3.88,2.15.97,14.43.22,37.33-13.38,23.59l-8.57,24.8c-6.25-5.94.81-18.36.93-25.63.02-1.33-3.66-.01-3.92-3.89-.16-2.39,5.74-6.85,3.89-8.64-3.66-3.53-19.35,18.69-13.32,24.8l7.58-13.34-1.91,36.25-1.91-7.61c-1.25,14.89-16.84-13.41-15.27-22.91-1.51,6.15-13.37-.59-14.25,0-2.2,1.49-8.13,18.76-15.31,20.97,3.99-20.29-6.77.22-8.55-1.9-.65-.78.6-7.25,0-7.66-1.02-.69-6.11.96-8.23,0-1.64-.75-1.33-3.9-2.28-3.85-1.43.08-14.52,10.71-16.2,7.69-1.83-3.29,2.11-9.94,1.91-11.44-.08-.57-5.38,1.09-5.73-.96-.16-.93,7.6-8.68,5.7-10.5-.64-.62-19.15,7.9-7.23-3.5,1.32-1.26,6.57.24,7.25-.33,1.17-.99-5.77-13.33-4.9-15.41,1.59-3.81,15-14.8,18.24-13.22Z"/>
  <path class="cls-1" d="M654.81,890.62c.97,1.57,2.1,3.27,2.58,5.06l-7.63-3.78c-1.94,4.71,2.29,23.63,1.88,24.8-.12.34-3.53-2.52-5.7.99-.37.6,2.66,5.67,1.93,6.63-.3.39-9.18,1.27-9.58,1.95-.24.42,3.38,7.63,1.9,9.52-.57.73-14.35-14.06-15.23-8.61-.12.72,8.4,11.59,7.62,12.4-3.8,3.93-25.32-29.36-13.38,19.1-8.08-17.91-19.14,3.29-22.9-15.25l-5.68,9.52-19.14-30.52c-6.85-1.67-2.33,6.33-3.95,7.42-3.26,2.2-9.07-.2-9.35.17-.58.76,1.07,10.75-2.88,11.46-1.45.26-1.54-17.85-6.64-3.82l-1.96-30.52-7.62,22.91c-4.32-.01-9.62-12.64-12.4-13.37-2.02-.53,1.19,8.22-4.75,5.71-1.97-11.99,11.76-22.9,15.23-5.73l1.96-19.07c5.72,9.56,11.03-.59,11.4,0,2.09,3.42,3.12,19.72,3.87,24.79,5.32-12.4,1.4.16,9.51,0l-1.96-9.5-3.74,1.89c-2.93-21.38,26.44,2.22,28.6-.03.69-.72-4.17-6.22-3.83-7.6.31-1.24,4.71,2.89,5.64-2.81.8-4.88-10.05-10.67-11.33-14.38,15.06.82,23.29.19,34.31,11.44-1.45-16.27,2.76-6.15,8.21-7.97,3.04-1.01,6.83-4.77,8.03-4.79,1.94-.03,8.06,7.25,10.5,5.1.51-.45-8.87-10.45.97-9.51.84.08,2.46,13.91,2.87-1.91l3.77,9.52c.55-2.31-1.1-15.28.98-15.29,1.93,0,.13,6.84,1.9,9.62,1.5,2.36,5.16,3.01,6.02,4.41Z"/>
  <path class="cls-1" d="M305.33,832.69c-4.84.99-17.89,12.2-25.74,11.49l3.78,3.76-38.15,13.37c25.76-16.56,55.88-33.59,84.9-38.16l-6.65,3.79,9.52,1.91-7.61,1.91c8.12.98,29.21-.71,11.45-5.68,5.39.79,14.65-.15,10.5-7.68-1.91-3.46-8.09,3.7-6.7-3.79l7.62-2.84-15.23-4.78c17.01-5.9,23.79.71,37.02,9.33,2.07,1.35.82,5.73,1.14,5.93.79.51,4.39-1.94,5.83-1.13,1.88,1.06,1.47,7.37,4.76,8.5,1.79.61,7.21-2.84,10.88-1.64,13.95,4.54,13.24,3.32,25.11,5.65,1.87.37,1.85,5.26,4.18,5.63,16.78,2.67,35.59-2.44,52.27.18l-23.8,7.25c-8.06-1.2-16.4-4.05-16.3,6.08,1.83-14.35-38.8-7.31-21.33,1.87,6.15,3.23,23.05-3.85,17.19,7.32-3,5.72-6.23-1.39-6.69-1.48-13.92-2.6-36.6-1.44-48.95-8.13-4.57-2.48-1.21-7.2-3.56-8.61-23.71-14.19-47.8-1.31-74-.53l40.06-9.52c-9.29,1.29-22.86-1.77-31.48,0Z"/>
  <path class="cls-1" d="M702.78,602.18c1.79,1.61.15,9.25,6.99,12.95,6.3,3.41,14.67.68,20.12,6.59-6.76,1.56,7.4,15.46.02,21.93,18.6-7.37,29.3-30.79,51.5-20.05-12.11-1.41-26.23,22.99-30.05,23.91-4.47,1.08-16.29-3.19-17.63-1.92-.9.86,2.69,5.98,1.73,7.33-.61.86-5.08,1.41-7.29,5.23-2.27,3.94-1.44,10.03-3,12.28-4.78,6.88-5.84-5.9-9.55-3.84-3.6,2.01-2.98,16.57-16.29,2.89-11.1-11.41,1.46-6.6,4.54-8.92,2.25-1.7,3.73-11.36,8.84-7.35,1.81,1.42-.42,11.07.02,11.44,8.14,7,14.26-38.85-8.56-32.47-1.51.42-1.31,19.93-18.91-7.8-21.87-34.45,7.14-9.88,8.38-11.28,3.61-4.08-8.33-16.53-7.62-17.15.97-.84,15.11,4.74,16.76,6.22Z"/>
  <path class="cls-1" d="M218.5,418.38c3.36,3.76-14.38,87.75-15.81,99.72l-10.88,11c3.94-13.06-7.32-8.44-7.63-10.48-.58-3.84,12.54-5.58,11.43-9.52-1.76-6.2-9.57,3.07-11.43.9-.73-.85,3.88-17.74,4.02-22.02.99-29.42,1.38-31.35,19.15-57.1.57-.82,3.63-20.91,11.15-12.49Z"/>
  <path class="cls-1" d="M729.71,435.84c2.69,6.8-26.82,49.93-33.91,54.93-6.94,4.89-26.65,8.94-30.84,12.6-2.45,2.14-5,25.68-7.91,27.29-22.7,12.6-16.11-30.02-12.53-33.51s32.13-2.35,46.53-16.45c13.12-12.84,17.69-49.07,19.84-50.8,2.92-2.34,18.23,4.44,18.82,5.94Z"/>
  <path class="cls-1" d="M324.27,465.57c1.86,3.96,19.15,26.05,22.24,28.06,10.18,6.65,35.34,7.64,38.97,10.65,5.65,4.69,13.75,30.26,6.2,37.71-14.95,14.75-21.29-25.69-23.43-29.21-5.82-9.56-32.92-14.36-44.25-26.22-5.96-6.23-31-47.54-16.68-51.1,16.43-4.09,13.22,22.15,16.96,30.1Z"/>
  <path class="cls-1" d="M145.51,625.11c.29-.01.47,2.96,1.77,3.36,5.47,1.69,10.02-7.83,11.21,9.4.68,9.88-10.46,20.59-12.59,31.5-.14.74,4.05,1.22,4.04,2.16-.07,3.72-5.13,11.16-3.91,12.22,1.07.93,12.14-8.89,9.44,6.59-.67,3.83-18.19,9.56-18.99,8.68-1.5-1.66,8.52-16.7-5.71-9.53.59-18.71-16.9-63.21,14.75-64.38Z"/>
  <path class="cls-1" d="M197.5,536.74c.64.61,7.2,15.31,7.28,16.2.59,6.65-10.05,13.35-7.27,16.25.4.42,10.08.54,11.47,1.94.28.28-2.63,4.9-1.92,5.7.46.52,7.07-2.09,8.48,8.62,1.61,12.24-7.32,22.03-8.47,28.74-.63,3.65,6.84,8.7,3.81,10.38-13.82,7.67-12.61-9.06-13.81-12.25-1.09-2.88-4.75-2.15-5.33-4.01-.79-2.52,4.28-4.99,3.88-6.6-.06-.25-4.67-.67-4.89-1.9-.72-4.05,1.41-5.99,1.16-8.39-.12-1.21-3.88-1.27-3.96-2.52-.6-10.6,6.14-17.75,5.77-18.73-1.55-4.08-7.31-.45-7.61-.98-.94-1.69,4.36-39.18,11.42-32.45Z"/>
  <path class="cls-1" d="M207.05,246.57c7.71,7.46-13.52-2.82-11.48,6.68,1.7,7.9,18.75,6.89,21.01,11.46,1.77,3.59-4.09,2.71-5.42,5.91-1.17,2.8.38,9.44-.29,10.28-.72.9-7.45-2.95-9.51-1.89-.85.44-.55,11.69-13.96,7.41-1.72-.55-9.12-11.48-8.9-12.2,1.73-5.71,15.11.22,13.28-5.68-1.44-4.64-18.64-4.53-17.14-11.45.65-2.99,9.58-4.31,12.49-6.73,1.12-.93-1.74-6.5,1.87-7.64.88-.28,17.39,3.23,18.06,3.87Z"/>
  <path class="cls-1" d="M347.99,792.87c16.25,8.86-27.9,11.06-30.24,11.21l7.61,3.77c-13.46-2.99-22.49,13.01-34.32,7.69l9.51-3.82c-34.65,3.03-67.84,15.88-99.21,30.5,28.68-18.84,66.31-31.25,99.63-38.85,5.66-1.29,36.05-2.53,37.75-5.07.8-1.19-4.92-4.91-3.81-5.68.54-.37,11.84-.43,13.08.25Z"/>
  <path class="cls-1" d="M863.46,706.7c-24.41.6-48.67-1.06-73.16,2.18-8.63,1.14-66.22,15.52-70.38,18.81-7.49,5.92,4.38,25.01,2.33,26.71-10.18,8.45-9.76-8.79-10.3-9.6-1.27-1.93-8.13-2.03-8.73-4.71-.23-1.02,4.87-2.26,5.64-4.36,1.18-3.22,1.51-11.49,1.98-11.87.39-.32,5.28,2.92,9.92,1.54,46.5-13.81,93.27-32.89,142.69-18.7Z"/>
  <path class="cls-1" d="M229.96,746.8c.72.7-5.92,5.97-3.8,7.6,3.61,2.77,69.97-4.98,80.12,5.72-34.54,1.4-80.11-13.75-104.91,17.21,13.9-26-10.73,2.47-24.81-7.61,8.68,1.7,51.33-24.95,53.41-22.92Z"/>
  <path class="cls-1" d="M799.95,647.12c-.32.44-6.17,1.47-9.26,5.09-2.32,2.72.45,6.41.2,6.62-.56.48-11.9,7.32-12.57,7.62-1.52.7-7.04-6.59-8.35-.78-1.13,5.01,5.73,13.1-1.93,17.19-4.39,2.34-15.02-4.11-15.24-4.88-.42-1.45,13.55-19.96,15.81-22.2,1.1-1.08,22.86-18.37,24.3-18.89,8.04-2.9,10.32,5.65,7.04,10.22Z"/>
  <path class="cls-1" d="M134.54,563.49c.6.68-1.05,5.68.31,7.34.85,1.05,6.02-.06,7.2,3.35,3.1,8.99-9.99,24.72-19.13,26.47-14.09,2.7-1.17-15.67,1.77-23.25.93-2.4-4.03-4.86-3.49-6.24.28-.72,12.84-8.25,13.35-7.67Z"/>
  <path class="cls-1" d="M349.47,633.43c-.73.9-16.99,15.47-18.37,14.05-3.22-3.32,11.7-14.04,11.39-16.22-.64-4.41-21.69,3.55-12.92-9.14,8.06-11.65,13.13-1.15,13.97-1.25,10.92-1.3,16.14-22.96,20.95-21.05,5.27,2.09-11.49,29.23-15.02,33.61Z"/>
  <path class="cls-1" d="M321.55,682.81c-3.07,11.27-18.93-33.87-17.17-35.3,1.91-1.55,17.17,2.09,17.17,4.75,0,7.14,1.43,25.3,0,30.55Z"/>
  <path class="cls-1" d="M706.35,678.76c8.45,1.24,11.04,37.46-.27,35.58-2.94-.49-7.61-29.91-6.78-33.43,1.3-5.54,2.94-2.76,7.06-2.15Z"/>
  <path class="cls-1" d="M797.74,896.53c1.21,1.12,16.82,14.64,7.57,12.52-5.7-1.31-44.86-48.43-21.01-11.45l-44.84-45.8c18.79,15.18,40.55,28.36,58.28,44.73Z"/>
</svg>