<svg xmlns="http://www.w3.org/2000/svg" viewBox="0 0 512 512" id="knife-with-blood">
  <path fill="#b28562" d="M242.693 305.684c10.588 28.125 24.211 45.87 33.803 56.346 44.582 48.698 96.776 43.844 98.888 91.554.665 15.008-3.916 27.797 4.641 39.013 9.3 12.188 30.242 17.443 54.546 7.519 15.711-6.415 30.52-18.23 41.699-32.593 11.357-14.592 8.127-37.5-7.568-53.12L301.087 247.56Z"></path>
  <path fill="#a57a5d" d="M468.702 414.402 301.087 247.56l-15 14.93 152.615 151.912c15.695 15.622 18.925 38.529 7.568 53.121-11.178 14.362-25.988 26.178-41.699 32.593a75.157 75.157 0 0 1-8.978 3.036c10.463 3.42 24.086 3.044 38.978-3.036 15.711-6.415 30.52-18.23 41.699-32.593 11.357-14.592 8.127-37.5-7.568-53.12Z"></path>
  <path fill="#f2f2f2" d="m301.089 247.557-78.92 78.51-5.63 5.6a5.784 5.784 0 0 1-8.11 0l-137.08-136.45c-14.51-14.43-25.81-32.87-33.08-52.92a143.5 143.5 0 0 1-1.69-4.94c-14.47-44.43-9.31-95.71 24.16-129.04Z"></path>
  <path fill="#dedede" d="M60.739 8.317a101.945 101.945 0 0 0-13.42 16.505l206.495 205.54a24.254 24.254 0 0 1-.005 34.385l-56.322 56.029 10.942 10.891a5.784 5.784 0 0 0 8.11 0l5.63-5.6 78.92-78.51Z"></path>
  <path fill="#f66" d="M86.92 285.163c0 13.587-9.914 24.602-22.142 24.602s-22.142-11.015-22.142-24.602 22.142-37.603 22.142-37.603 22.141 24.015 22.141 37.603Z"></path>
  <path fill="#ff4e4e" d="M64.778 247.56s-3.383 3.672-7.5 8.948c6.423 8.23 14.641 20.375 14.641 28.655 0 10.662-6.105 19.737-14.641 23.152a20.128 20.128 0 0 0 7.5 1.45c12.228 0 22.141-11.015 22.141-24.602 0-13.588-22.141-37.603-22.141-37.603Z"></path>
  <path fill="#f66" d="M111.28 379.824c0 11.869-8.66 21.49-19.34 21.49s-19.34-9.621-19.34-21.49 19.34-32.845 19.34-32.845 19.34 20.977 19.34 32.845Z"></path>
  <path fill="#ff4e4e" d="M91.94 346.979s-3.489 3.786-7.5 9.046c5.437 7.13 11.84 16.97 11.84 23.8 0 8.913-4.884 16.557-11.84 19.812a17.628 17.628 0 0 0 7.5 1.677c10.68 0 19.34-9.621 19.34-21.49S91.94 346.98 91.94 346.98Z"></path>
  <path fill="#f66" d="M212.819 333.317a5.672 5.672 0 0 1-4.39-1.65l-137.08-136.45c-14.51-14.43-25.81-32.87-33.08-52.92a143.5 143.5 0 0 1-1.69-4.94c23.905-.411 36.12 6.592 42.88 13.27 8 7.905 7.915 14.919 16.892 19.253 13.38 6.46 23.447-4.348 32.958 2.257 9.148 6.354 2.733 18.366 12.716 27.335 9.482 8.519 19.018 1.051 29.314 9.805 8.494 7.222 4.232 14.28 13.691 25.408 9.349 10.998 15.804 6.899 22.469 15.642 8.287 10.872 2.541 22.767 2.93 52.77a229.429 229.429 0 0 0 2.39 30.22Z"></path>
  <path fill="#ff4e4e" d="M64.459 150.627c8 7.905 7.915 14.919 16.892 19.253 6.62 3.197 12.429 2.165 17.76 1.107a21.968 21.968 0 0 1-2.76-1.107c-8.977-4.334-8.892-11.348-16.892-19.253-6.76-6.678-18.975-13.681-42.88-13.27.094.296.196.59.293.885 14.163 2.056 22.452 7.312 27.587 12.385zm145.97 152.47c-.389-30.003 5.357-41.898-2.93-52.77-6.665-8.743-13.12-4.645-22.469-15.642-9.46-11.127-5.197-18.186-13.691-25.408-10.296-8.754-19.832-1.286-29.314-9.805-9.983-8.97-3.568-20.981-12.716-27.335-5.189-3.603-10.544-2.026-16.51-.895a12.729 12.729 0 0 1 1.51.895c9.148 6.354 2.733 18.366 12.716 27.335 9.482 8.519 19.018 1.051 29.314 9.805 8.494 7.222 4.232 14.28 13.691 25.408 9.349 10.997 15.804 6.899 22.469 15.642 8.287 10.872 2.541 22.767 2.93 52.77.078 6.042.39 11.557.802 16.428l12.198 12.142a5.672 5.672 0 0 0 4.39 1.65 229.429 229.429 0 0 1-2.39-30.22z"></path>
  <path fill="#272a33" d="M473.994 408.27 306.426 241.476c-.016-.016-.03-.035-.046-.051L66.03 2.185a7.5 7.5 0 0 0-10.583 0C22.605 34.892 12.642 87.263 29.434 138.823l.021.065.003.008a150.418 150.418 0 0 0 1.76 5.142c7.802 21.517 19.85 40.77 34.84 55.679l137.088 136.459a13.198 13.198 0 0 0 9.286 3.839q.42 0 .841-.028a13.202 13.202 0 0 0 8.555-3.819L240 318.088a175.962 175.962 0 0 0 30.963 48.19c19.51 21.31 40.689 32.955 57.709 42.313 22.989 12.641 38.177 20.992 39.22 44.507a113.358 113.358 0 0 1-.297 11.811c-.632 10.452-1.285 21.261 6.466 31.42 6.867 9 19.548 15.693 35.875 15.693a72.745 72.745 0 0 0 27.469-5.78c16.633-6.79 32.537-19.196 44.783-34.93 13.72-17.63 10.197-44.733-8.195-63.042ZM203.925 276.224c-.505 6.846-1.135 15.367-.996 26.153q.084 6.465.528 12.943L76.637 189.083a134.838 134.838 0 0 1-29.173-44.627c11.719 1.166 20.697 4.735 26.724 10.69a38.376 38.376 0 0 1 5.873 7.818c2.714 4.386 5.79 9.357 13.03 12.853 9.069 4.38 17.086 2.784 22.939 1.62 5.043-1.004 7.125-1.26 9 .043 1.74 1.207 2.152 2.925 2.889 7.527.872 5.45 2.065 12.913 9.094 19.227 6.661 5.985 13.408 6.391 18.83 6.717 4.436.267 7.368.443 10.637 3.223 2.56 2.177 3.097 4.022 4.164 7.699a41.186 41.186 0 0 0 8.672 16.853 35.456 35.456 0 0 0 15.666 10.97c3.082 1.224 4.63 1.838 6.552 4.36 3.532 4.634 3.304 9.828 2.391 22.168Zm14.788 41.885a223.004 223.004 0 0 1-.786-15.925c-.13-10.136.473-18.297.957-24.855.988-13.365 1.702-23.022-5.42-32.366-4.446-5.832-9.158-7.704-12.944-9.208-3.41-1.355-6.103-2.425-9.775-6.744-3.658-4.303-4.603-7.555-5.696-11.32-1.274-4.39-2.86-9.85-8.852-14.945-7.086-6.024-14.235-6.454-19.454-6.768-4.688-.282-7.058-.523-9.705-2.902-2.938-2.638-3.524-5.539-4.308-10.438-.846-5.283-2.003-12.519-9.143-17.478-7.29-5.062-14.606-3.606-20.485-2.435-4.997.994-8.945 1.779-13.49-.415-3.171-1.532-4.374-3.326-6.795-7.239a52.748 52.748 0 0 0-8.087-10.595c-9.753-9.639-24.067-14.768-42.579-15.374C30.154 87.452 37.23 46.08 60.954 18.297l229.502 228.441Zm251.638 143.99c-10.659 13.696-24.373 24.441-38.615 30.256-15.363 6.273-36.235 7.345-45.748-5.126-4.164-5.457-4.024-11.393-3.419-21.416a124.56 124.56 0 0 0 .308-13.378c-1.414-31.935-22.529-43.545-46.978-56.988-16.889-9.286-36.032-19.811-53.872-39.299-12.57-13.73-22.836-30.353-30.566-49.46l49.624-49.365L463.412 418.9c13.028 12.97 16.011 31.541 6.94 43.2ZM322.76 301.21a24.813 24.813 0 0 0-34.932.001 24.625 24.625 0 0 0 17.466 42.06 24.686 24.686 0 0 0 17.466-7.19 24.583 24.583 0 0 0 0-34.87Zm-10.582 24.24a9.78 9.78 0 0 1-13.768 0 9.582 9.582 0 0 1 0-13.608 9.78 9.78 0 0 1 13.768 0 9.583 9.583 0 0 1 0 13.607Zm38.145 29.613a24.581 24.581 0 0 0 0 34.869 24.811 24.811 0 0 0 34.933 0 24.583 24.583 0 0 0 0-34.87 24.808 24.808 0 0 0-34.933 0Zm24.35 24.237a9.778 9.778 0 0 1-13.768 0 9.582 9.582 0 0 1 0-13.607 9.779 9.779 0 0 1 13.768 0 9.583 9.583 0 0 1 0 13.607Zm31.513 39.724a24.624 24.624 0 0 0 17.467 42.058 24.688 24.688 0 0 0 17.466-7.188 24.581 24.581 0 0 0 0-34.87 24.811 24.811 0 0 0-34.933 0Zm24.35 24.238a9.781 9.781 0 0 1-13.768 0 9.583 9.583 0 0 1 0-13.607 9.779 9.779 0 0 1 13.769 0v.001a9.58 9.58 0 0 1 0 13.606ZM94.42 284.346c0-15.721-20.1-38.317-24.128-42.687a7.5 7.5 0 0 0-11.028 0c-4.029 4.37-24.128 26.966-24.128 42.687 0 17.7 13.297 32.102 29.642 32.102s29.642-14.401 29.642-32.102Zm-29.642 17.102c-8.073 0-14.642-7.672-14.642-17.102 0-3.779 4.59-13.863 14.642-26.17 10.053 12.307 14.642 22.391 14.642 26.17 0 9.43-6.569 17.102-14.642 17.102Zm27.161 37.213a7.501 7.501 0 0 0-5.515 2.416c-3.56 3.863-21.325 23.846-21.325 37.93 0 15.985 12.04 28.99 26.84 28.99s26.841-13.005 26.841-28.99c0-14.085-17.766-34.067-21.327-37.93a7.5 7.5 0 0 0-5.514-2.416Zm0 54.336c-6.528 0-11.84-6.275-11.84-13.99 0-3.49 4.408-11.995 11.84-21.327 7.434 9.333 11.841 17.838 11.841 21.328 0 7.714-5.312 13.99-11.84 13.99Z"></path>
</svg>
